<?xml version="1.0" standalone="no"?>
<!DOCTYPE svg PUBLIC "-//W3C//DTD SVG 20010904//EN"
 "http://www.w3.org/TR/2001/REC-SVG-20010904/DTD/svg10.dtd">
<svg version="1.0" xmlns="http://www.w3.org/2000/svg"
 width="128.000000pt" height="128.000000pt" viewBox="0 0 128.000000 128.000000"
 preserveAspectRatio="xMidYMid meet">
<metadata>
Created by potrace 1.14, written by Peter Selinger 2001-2017
</metadata>
<g transform="translate(0.000000,128.000000) scale(0.100000,-0.100000)"
fill="#000000" stroke="none">
<path d="M510 1136 c-172 -51 -299 -173 -356 -341 -24 -73 -26 -89 -21 -185
11 -205 106 -349 291 -441 79 -39 93 -42 183 -47 164 -8 296 41 402 147 102
102 151 222 151 365 0 225 -133 412 -345 488 -82 30 -229 36 -305 14z m301
-25 c221 -84 352 -283 336 -510 -4 -46 -9 -86 -12 -89 -3 -3 -30 -1 -62 4 -42
7 -57 13 -59 27 -2 13 5 17 32 17 19 0 34 2 34 5 0 3 -14 33 -31 67 -22 44
-26 59 -15 55 8 -3 18 -3 20 2 6 9 -55 113 -69 118 -10 2 -75 -100 -75 -117 0
-5 7 -7 15 -4 22 9 18 -12 -12 -66 -15 -27 -25 -51 -23 -53 3 -2 20 -7 38 -10
25 -5 32 -3 29 6 -2 6 -14 11 -25 9 -28 -4 -28 2 8 66 27 50 28 53 10 60 -19
7 -18 9 6 51 28 46 29 46 63 -11 l23 -38 -22 0 c-12 0 -20 -3 -18 -7 2 -5 16
-32 31 -61 28 -53 24 -68 -14 -60 -7 2 -15 -7 -17 -19 -3 -20 -8 -21 -60 -18
-31 1 -87 3 -124 4 -55 1 -71 5 -87 23 -24 25 -19 38 12 32 59 -11 58 2 -16
126 -40 66 -75 119 -79 118 -12 -4 -146 -232 -142 -240 3 -4 22 -6 44 -4 l39
3 -15 -28 c-12 -25 -21 -29 -57 -30 -23 -1 -72 -3 -109 -5 -56 -3 -68 -1 -68
11 0 10 10 15 30 15 36 0 37 6 5 61 -27 49 -32 70 -13 67 7 -2 13 2 13 7 0 19
-60 115 -70 112 -5 -2 -24 -28 -42 -57 -23 -38 -29 -56 -21 -61 7 -4 16 -5 20
-3 14 9 9 -3 -22 -56 -16 -28 -30 -55 -30 -60 0 -6 14 -10 30 -10 23 0 30 -5
30 -19 0 -15 -10 -20 -56 -26 -31 -4 -59 -4 -62 0 -4 3 -7 54 -7 113 0 128 23
203 90 298 58 80 74 94 87 71 46 -83 164 -86 212 -7 18 31 21 96 6 120 -14 23
13 29 120 25 67 -2 111 -9 151 -24z m-281 -10 c40 -75 -37 -171 -122 -152 -47
11 -55 17 -72 50 -15 27 -14 28 31 57 47 30 119 62 140 63 7 1 17 -8 23 -18z
m176 -374 c26 -45 54 -90 62 -99 14 -17 12 -18 -31 -18 -26 0 -47 -3 -47 -6 0
-4 29 -53 65 -111 36 -57 65 -106 65 -109 0 -2 -31 -4 -70 -4 l-70 0 0 -50 c0
-50 0 -50 -33 -50 l-33 0 1 50 1 50 -68 0 c-37 0 -68 3 -68 6 0 4 29 53 65
110 36 57 65 106 65 109 0 3 -20 5 -45 5 l-44 0 62 104 c34 57 65 102 69 100
3 -2 28 -41 54 -87z m-360 1 c13 -25 13 -28 -1 -28 -22 0 -19 -22 10 -71 31
-55 31 -59 0 -59 -18 0 -25 -5 -25 -20 0 -15 -7 -20 -24 -20 -19 0 -24 4 -21
20 4 19 -8 25 -42 21 -19 -3 -16 7 17 66 29 51 30 54 11 61 -19 7 -18 9 7 51
24 41 26 42 40 25 7 -11 20 -31 28 -46z m159 -270 c-25 -40 -45 -77 -45 -83 0
-6 27 -10 70 -9 l70 1 0 -48 c0 -32 4 -49 13 -50 85 -8 78 -13 81 61 l1 35 67
1 c37 0 70 3 73 6 4 3 -13 37 -36 74 -23 38 -44 73 -46 77 -9 14 296 -10 359
-29 16 -5 16 -8 1 -47 -42 -107 -131 -205 -234 -257 -204 -104 -437 -67 -593
93 -56 57 -109 143 -118 191 -4 25 27 32 172 41 58 4 106 8 107 9 2 1 25 3 53
5 l51 2 -46 -73z"/>
<path d="M578 1113 c6 -2 18 -2 25 0 6 3 1 5 -13 5 -14 0 -19 -2 -12 -5z"/>
<path d="M634 1112 c5 -9 64 -7 73 2 4 3 -13 6 -36 6 -23 0 -40 -4 -37 -8z"/>
<path d="M610 1056 c0 -2 7 -6 15 -10 8 -3 15 -1 15 4 0 6 -7 10 -15 10 -8 0
-15 -2 -15 -4z"/>
<path d="M571 1006 c11 -11 249 -104 249 -97 0 8 -223 101 -242 101 -6 0 -9
-2 -7 -4z"/>
<path d="M280 935 c-13 -14 -21 -27 -18 -30 2 -3 15 6 28 20 13 14 21 27 18
30 -2 3 -15 -6 -28 -20z"/>
<path d="M570 953 c0 -5 14 -17 30 -26 17 -10 30 -14 30 -10 0 5 -13 17 -30
26 -16 10 -30 14 -30 10z"/>
<path d="M510 934 c0 -13 48 -59 55 -52 3 2 -9 17 -25 33 -17 16 -30 24 -30
19z"/>
<path d="M337 913 c-4 -3 -7 -11 -7 -17 0 -6 5 -5 12 2 6 6 9 14 7 17 -3 3 -9
2 -12 -2z"/>
<path d="M383 860 c-6 -28 -6 -53 -2 -56 5 -3 9 4 9 15 0 27 0 25 10 61 5 16
5 30 1 30 -5 0 -13 -23 -18 -50z"/>
<path d="M461 884 c0 -11 3 -14 6 -6 3 7 2 16 -1 19 -3 4 -6 -2 -5 -13z"/>
<path d="M585 850 c3 -5 11 -10 16 -10 6 0 7 5 4 10 -3 6 -11 10 -16 10 -6 0
-7 -4 -4 -10z"/>
</g>
</svg>
